<svg width="23" height="22" viewBox="0 0 23 22" fill="none" xmlns="http://www.w3.org/2000/svg">
<g clip-path="url(#clip0_2_5469)">
<path d="M6.61206 21.75C6.85295 21.75 7.0743 21.6849 7.27612 21.5547C7.47795 21.4245 7.72534 21.2292 8.01831 20.9687L11.3874 17.9707H17.657C18.6271 17.9707 19.4441 17.7965 20.1082 17.4482C20.7722 17.0999 21.2751 16.5938 21.6169 15.9297C21.9587 15.2656 22.1296 14.4551 22.1296 13.498V6.01756C22.1296 5.06053 21.9587 4.24998 21.6169 3.58592C21.2751 2.92185 20.7722 2.41567 20.1082 2.06736C19.4441 1.71905 18.6271 1.5449 17.657 1.5449H5.07886C4.10881 1.5449 3.29175 1.71905 2.62768 2.06736C1.96362 2.41567 1.46069 2.92185 1.1189 3.58592C0.7771 4.24998 0.606201 5.06053 0.606201 6.01756V13.498C0.606201 14.4551 0.7771 15.2656 1.1189 15.9297C1.46069 16.5938 1.96362 17.0999 2.62768 17.4482C3.29175 17.7965 4.10881 17.9707 5.07886 17.9707H5.54761V20.5097C5.54761 20.8873 5.64038 21.1884 5.82593 21.4131C6.01148 21.6377 6.27352 21.75 6.61206 21.75ZM7.01245 19.9629V17.1308C7.01245 16.8639 6.95711 16.6751 6.84643 16.5644C6.73576 16.4537 6.54696 16.3984 6.28003 16.3984H5.07886C4.08927 16.3984 3.35848 16.1526 2.88647 15.6611C2.41447 15.1696 2.17847 14.4453 2.17847 13.4883V6.01756C2.17847 5.06704 2.41447 4.34601 2.88647 3.85447C3.35848 3.36294 4.08927 3.11717 5.07886 3.11717H17.657C18.6401 3.11717 19.3692 3.36294 19.8445 3.85447C20.3198 4.34601 20.5574 5.06704 20.5574 6.01756V13.4883C20.5574 14.4453 20.3198 15.1696 19.8445 15.6611C19.3692 16.1526 18.6401 16.3984 17.657 16.3984H11.3289C11.0554 16.3984 10.8341 16.4277 10.6648 16.4863C10.4955 16.5449 10.3197 16.6686 10.1375 16.8574L7.01245 19.9629ZM9.29253 13.4519L11.3785 11.9297L13.4563 13.4519C13.6604 13.6022 13.8496 13.621 14.0241 13.5083C14.1986 13.3956 14.2429 13.2076 14.157 12.9445L13.3436 10.5042L15.4698 8.96595C15.6147 8.86394 15.6939 8.74984 15.7074 8.62366C15.7208 8.49749 15.6845 8.38742 15.5986 8.29346C15.5127 8.1995 15.3866 8.15252 15.2201 8.15252H12.5865L11.8053 5.72833C11.7302 5.48672 11.5865 5.36725 11.3744 5.36994C11.1623 5.37262 11.0187 5.49208 10.9436 5.72833L10.1623 8.15252H7.5207C7.35425 8.15252 7.22808 8.1995 7.14217 8.29346C7.05626 8.38742 7.02002 8.49749 7.03345 8.62366C7.04687 8.74984 7.12606 8.86394 7.27103 8.96595L9.41334 10.5042L8.59185 12.9445C8.50058 13.2076 8.54353 13.3956 8.72071 13.5083C8.8979 13.621 9.0885 13.6022 9.29253 13.4519Z" fill="black"/>
</g>
<defs>
<clipPath id="clip0_2_5469">
<rect width="21.5234" height="21.4551" fill="white" transform="translate(0.606201 0.294899)"/>
</clipPath>
</defs>
</svg>
