<svg width="24" height="22" viewBox="0 0 24 22" fill="none" xmlns="http://www.w3.org/2000/svg">
<g clip-path="url(#clip0_2_5972)">
<path d="M2.24609 17.8808H21.0254C21.7285 17.8808 22.2803 17.6806 22.6807 17.2802C23.081 16.8799 23.2812 16.3281 23.2812 15.625V3.91599C23.2812 3.21286 23.081 2.66273 22.6807 2.2656C22.2803 1.86846 21.7285 1.66989 21.0254 1.66989H2.24609C1.54948 1.66989 1.00098 1.86846 0.600586 2.2656C0.200195 2.66273 0 3.21286 0 3.91599V15.625C0 16.3281 0.200195 16.8799 0.600586 17.2802C1.00098 17.6806 1.54948 17.8808 2.24609 17.8808ZM2.27539 16.3086C2.06054 16.3086 1.88965 16.2451 1.7627 16.1181C1.63575 15.9912 1.57227 15.8203 1.57227 15.6054V3.94528C1.57227 3.72392 1.63575 3.5514 1.7627 3.42771C1.88965 3.30401 2.06054 3.24216 2.27539 3.24216H21.0059C21.2207 3.24216 21.3916 3.30401 21.5186 3.42771C21.6455 3.5514 21.709 3.72392 21.709 3.94528V15.6054C21.709 15.8203 21.6455 15.9912 21.5186 16.1181C21.3916 16.2451 21.2207 16.3086 21.0059 16.3086H2.27539ZM8.55469 20.2051H14.7266V17.7539H8.55469V20.2051ZM8.49609 21.3476H14.7852C15 21.3476 15.1839 21.2711 15.3369 21.1181C15.4899 20.9651 15.5664 20.7779 15.5664 20.5566C15.5664 20.3353 15.4899 20.1481 15.3369 19.9951C15.1839 19.8421 15 19.7656 14.7852 19.7656H8.49609C8.28125 19.7656 8.0957 19.8421 7.93945 19.9951C7.7832 20.1481 7.70508 20.3353 7.70508 20.5566C7.70508 20.7779 7.7832 20.9651 7.93945 21.1181C8.0957 21.2711 8.28125 21.3476 8.49609 21.3476Z" fill="black"/>
</g>
<defs>
<clipPath id="clip0_2_5972">
<rect width="23.2812" height="20.3613" fill="white" transform="translate(0 0.986298)"/>
</clipPath>
</defs>
</svg>
