<svg width="20" height="20" viewBox="0 0 20 20" fill="none" xmlns="http://www.w3.org/2000/svg">
<g clip-path="url(#clip0_2_16029)">
<path d="M1.48126 7.09577C2.00861 7.09577 2.27228 6.82884 2.27228 6.29499V3.9903C2.27228 3.48248 2.40249 3.1 2.6629 2.84284C2.92332 2.58568 3.29767 2.4571 3.78595 2.4571H6.14923C6.68309 2.4571 6.95001 2.19342 6.95001 1.66608C6.95001 1.14524 6.68309 0.884827 6.14923 0.884827H3.76642C2.74428 0.884827 1.97768 1.13711 1.46661 1.64166C0.955546 2.14622 0.700012 2.8998 0.700012 3.90241V6.29499C0.700012 6.82884 0.960429 7.09577 1.48126 7.09577ZM19.0301 7.09577C19.5574 7.09577 19.8211 6.82884 19.8211 6.29499V3.90241C19.8211 2.8998 19.5656 2.14622 19.0545 1.64166C18.5434 1.13711 17.7768 0.884827 16.7547 0.884827H14.3621C13.8348 0.884827 13.5711 1.14524 13.5711 1.66608C13.5711 2.19342 13.8348 2.4571 14.3621 2.4571H16.7254C17.2071 2.4571 17.5815 2.58568 17.8484 2.84284C18.1153 3.1 18.2488 3.48248 18.2488 3.9903V6.29499C18.2488 6.82884 18.5092 7.09577 19.0301 7.09577ZM3.76642 19.9962H6.14923C6.68309 19.9962 6.95001 19.7358 6.95001 19.2149C6.95001 18.6876 6.68309 18.4239 6.14923 18.4239H3.78595C3.29767 18.4239 2.92332 18.2953 2.6629 18.0382C2.40249 17.781 2.27228 17.3985 2.27228 16.8907V14.586C2.27228 14.0521 2.00861 13.7852 1.48126 13.7852C0.960429 13.7852 0.700012 14.0521 0.700012 14.586V16.9688C0.700012 17.9779 0.955546 18.7348 1.46661 19.2393C1.97768 19.7439 2.74428 19.9962 3.76642 19.9962ZM14.3621 19.9962H16.7547C17.7768 19.9962 18.5434 19.7439 19.0545 19.2393C19.5656 18.7348 19.8211 17.9779 19.8211 16.9688V14.586C19.8211 14.0521 19.5574 13.7852 19.0301 13.7852C18.5092 13.7852 18.2488 14.0521 18.2488 14.586V16.8907C18.2488 17.3985 18.1153 17.781 17.8484 18.0382C17.5815 18.2953 17.2071 18.4239 16.7254 18.4239H14.3621C13.8348 18.4239 13.5711 18.6876 13.5711 19.2149C13.5711 19.7358 13.8348 19.9962 14.3621 19.9962ZM5.35524 15.88H15.1734C15.3882 15.88 15.5475 15.8173 15.6514 15.692C15.7552 15.5667 15.8071 15.4038 15.8071 15.2033C15.8071 14.9096 15.6943 14.5283 15.4688 14.0592C15.2432 13.5901 14.903 13.1211 14.4483 12.652C13.9936 12.1829 13.4189 11.7873 12.7242 11.4651C12.0295 11.1428 11.2096 10.9817 10.2643 10.9817C9.31902 10.9817 8.49905 11.1428 7.8044 11.4651C7.10976 11.7873 6.53506 12.1829 6.08032 12.652C5.62558 13.1211 5.28542 13.5901 5.05984 14.0592C4.83426 14.5283 4.72146 14.9096 4.72146 15.2033C4.72146 15.4038 4.77338 15.5667 4.87722 15.692C4.98106 15.8173 5.1404 15.88 5.35524 15.88ZM10.2643 10.1008C10.7728 10.108 11.2365 9.97908 11.6554 9.71412C12.0743 9.44915 12.4073 9.0893 12.6544 8.63456C12.9015 8.17981 13.025 7.66599 13.025 7.09309C13.025 6.55599 12.9015 6.06365 12.6544 5.61607C12.4073 5.16849 12.0743 4.81042 11.6554 4.54187C11.2365 4.27332 10.7728 4.13905 10.2643 4.13905C9.75586 4.13905 9.29216 4.27332 8.87323 4.54187C8.45429 4.81042 8.12129 5.16849 7.87423 5.61607C7.62717 6.06365 7.50363 6.55599 7.50363 7.09309C7.50363 7.66599 7.62717 8.17802 7.87423 8.62918C8.12129 9.08034 8.45429 9.43841 8.87323 9.70338C9.29216 9.96834 9.75586 10.1008 10.2643 10.1008Z" fill="black"/>
</g>
<defs>
<clipPath id="clip0_2_16029">
<rect width="19.1211" height="19.1309" fill="white" transform="translate(0.700012 0.865295)"/>
</clipPath>
</defs>
</svg>
