<svg width="32" height="36" viewBox="0 0 32 36" fill="none" xmlns="http://www.w3.org/2000/svg">
<path d="M10.5603 8.92293C10.981 7.48431 13.019 7.48431 13.4397 8.92293L14.4848 12.4965C14.6284 12.9876 15.0124 13.3716 15.5035 13.5152L19.0771 14.5603C20.5157 14.981 20.5157 17.019 19.0771 17.4397L15.5035 18.4848C15.0124 18.6284 14.6284 19.0124 14.4848 19.5035L13.4397 23.0771C13.019 24.5157 10.981 24.5157 10.5603 23.0771L9.51521 19.5035C9.3716 19.0124 8.9876 18.6284 8.49654 18.4848L4.92293 17.4397C3.48431 17.019 3.48431 14.981 4.92293 14.5603L8.49655 13.5152C8.9876 13.3716 9.3716 12.9876 9.51521 12.4965L10.5603 8.92293Z" fill="url(#paint0_linear_210_2087)"/>
<path d="M10.5603 8.92293C10.981 7.48431 13.019 7.48431 13.4397 8.92293L14.4848 12.4965C14.6284 12.9876 15.0124 13.3716 15.5035 13.5152L19.0771 14.5603C20.5157 14.981 20.5157 17.019 19.0771 17.4397L15.5035 18.4848C15.0124 18.6284 14.6284 19.0124 14.4848 19.5035L13.4397 23.0771C13.019 24.5157 10.981 24.5157 10.5603 23.0771L9.51521 19.5035C9.3716 19.0124 8.9876 18.6284 8.49654 18.4848L4.92293 17.4397C3.48431 17.019 3.48431 14.981 4.92293 14.5603L8.49655 13.5152C8.9876 13.3716 9.3716 12.9876 9.51521 12.4965L10.5603 8.92293Z" fill="white" fill-opacity="0.2"/>
<path d="M10.5603 8.92293C10.981 7.48431 13.019 7.48431 13.4397 8.92293L14.4848 12.4965C14.6284 12.9876 15.0124 13.3716 15.5035 13.5152L19.0771 14.5603C20.5157 14.981 20.5157 17.019 19.0771 17.4397L15.5035 18.4848C15.0124 18.6284 14.6284 19.0124 14.4848 19.5035L13.4397 23.0771C13.019 24.5157 10.981 24.5157 10.5603 23.0771L9.51521 19.5035C9.3716 19.0124 8.9876 18.6284 8.49654 18.4848L4.92293 17.4397C3.48431 17.019 3.48431 14.981 4.92293 14.5603L8.49655 13.5152C8.9876 13.3716 9.3716 12.9876 9.51521 12.4965L10.5603 8.92293Z" fill="url(#paint1_radial_210_2087)"/>
<path d="M10.5603 8.92293C10.981 7.48431 13.019 7.48431 13.4397 8.92293L14.4848 12.4965C14.6284 12.9876 15.0124 13.3716 15.5035 13.5152L19.0771 14.5603C20.5157 14.981 20.5157 17.019 19.0771 17.4397L15.5035 18.4848C15.0124 18.6284 14.6284 19.0124 14.4848 19.5035L13.4397 23.0771C13.019 24.5157 10.981 24.5157 10.5603 23.0771L9.51521 19.5035C9.3716 19.0124 8.9876 18.6284 8.49654 18.4848L4.92293 17.4397C3.48431 17.019 3.48431 14.981 4.92293 14.5603L8.49655 13.5152C8.9876 13.3716 9.3716 12.9876 9.51521 12.4965L10.5603 8.92293Z" fill="url(#paint2_linear_210_2087)" fill-opacity="0.3"/>
<path d="M23.4241 25.9692C23.5924 25.3937 24.4076 25.3937 24.5759 25.9692L25.2654 28.3271C25.3229 28.5235 25.4765 28.6771 25.6729 28.7346L28.0308 29.4241C28.6063 29.5924 28.6063 30.4076 28.0308 30.5759L25.6729 31.2654C25.4765 31.3229 25.3229 31.4765 25.2654 31.6729L24.5759 34.0308C24.4076 34.6063 23.5924 34.6063 23.4241 34.0308L22.7346 31.6729C22.6771 31.4765 22.5235 31.3229 22.3271 31.2654L19.9692 30.5759C19.3937 30.4076 19.3937 29.5924 19.9692 29.4241L22.3271 28.7346C22.5235 28.6771 22.6771 28.5235 22.7346 28.3271L23.4241 25.9692Z" fill="url(#paint3_linear_210_2087)"/>
<path d="M23.4241 25.9692C23.5924 25.3937 24.4076 25.3937 24.5759 25.9692L25.2654 28.3271C25.3229 28.5235 25.4765 28.6771 25.6729 28.7346L28.0308 29.4241C28.6063 29.5924 28.6063 30.4076 28.0308 30.5759L25.6729 31.2654C25.4765 31.3229 25.3229 31.4765 25.2654 31.6729L24.5759 34.0308C24.4076 34.6063 23.5924 34.6063 23.4241 34.0308L22.7346 31.6729C22.6771 31.4765 22.5235 31.3229 22.3271 31.2654L19.9692 30.5759C19.3937 30.4076 19.3937 29.5924 19.9692 29.4241L22.3271 28.7346C22.5235 28.6771 22.6771 28.5235 22.7346 28.3271L23.4241 25.9692Z" fill="white" fill-opacity="0.2"/>
<path d="M23.4241 25.9692C23.5924 25.3937 24.4076 25.3937 24.5759 25.9692L25.2654 28.3271C25.3229 28.5235 25.4765 28.6771 25.6729 28.7346L28.0308 29.4241C28.6063 29.5924 28.6063 30.4076 28.0308 30.5759L25.6729 31.2654C25.4765 31.3229 25.3229 31.4765 25.2654 31.6729L24.5759 34.0308C24.4076 34.6063 23.5924 34.6063 23.4241 34.0308L22.7346 31.6729C22.6771 31.4765 22.5235 31.3229 22.3271 31.2654L19.9692 30.5759C19.3937 30.4076 19.3937 29.5924 19.9692 29.4241L22.3271 28.7346C22.5235 28.6771 22.6771 28.5235 22.7346 28.3271L23.4241 25.9692Z" fill="url(#paint4_radial_210_2087)"/>
<path d="M23.4241 25.9692C23.5924 25.3937 24.4076 25.3937 24.5759 25.9692L25.2654 28.3271C25.3229 28.5235 25.4765 28.6771 25.6729 28.7346L28.0308 29.4241C28.6063 29.5924 28.6063 30.4076 28.0308 30.5759L25.6729 31.2654C25.4765 31.3229 25.3229 31.4765 25.2654 31.6729L24.5759 34.0308C24.4076 34.6063 23.5924 34.6063 23.4241 34.0308L22.7346 31.6729C22.6771 31.4765 22.5235 31.3229 22.3271 31.2654L19.9692 30.5759C19.3937 30.4076 19.3937 29.5924 19.9692 29.4241L22.3271 28.7346C22.5235 28.6771 22.6771 28.5235 22.7346 28.3271L23.4241 25.9692Z" fill="url(#paint5_linear_210_2087)" fill-opacity="0.3"/>
<path d="M26.4241 1.96917C26.5924 1.39372 27.4076 1.39372 27.5759 1.96917L28.0392 3.55336C28.0966 3.74979 28.2502 3.90338 28.4466 3.96083L30.0308 4.42412C30.6063 4.59241 30.6063 5.40759 30.0308 5.57588L28.4466 6.03917C28.2502 6.09662 28.0966 6.25021 28.0392 6.44664L27.5759 8.03083C27.4076 8.60628 26.5924 8.60628 26.4241 8.03083L25.9608 6.44664C25.9034 6.25021 25.7498 6.09662 25.5534 6.03917L23.9692 5.57588C23.3937 5.40759 23.3937 4.59241 23.9692 4.42412L25.5534 3.96083C25.7498 3.90338 25.9034 3.74979 25.9608 3.55336L26.4241 1.96917Z" fill="url(#paint6_linear_210_2087)"/>
<path d="M26.4241 1.96917C26.5924 1.39372 27.4076 1.39372 27.5759 1.96917L28.0392 3.55336C28.0966 3.74979 28.2502 3.90338 28.4466 3.96083L30.0308 4.42412C30.6063 4.59241 30.6063 5.40759 30.0308 5.57588L28.4466 6.03917C28.2502 6.09662 28.0966 6.25021 28.0392 6.44664L27.5759 8.03083C27.4076 8.60628 26.5924 8.60628 26.4241 8.03083L25.9608 6.44664C25.9034 6.25021 25.7498 6.09662 25.5534 6.03917L23.9692 5.57588C23.3937 5.40759 23.3937 4.59241 23.9692 4.42412L25.5534 3.96083C25.7498 3.90338 25.9034 3.74979 25.9608 3.55336L26.4241 1.96917Z" fill="white" fill-opacity="0.2"/>
<path d="M26.4241 1.96917C26.5924 1.39372 27.4076 1.39372 27.5759 1.96917L28.0392 3.55336C28.0966 3.74979 28.2502 3.90338 28.4466 3.96083L30.0308 4.42412C30.6063 4.59241 30.6063 5.40759 30.0308 5.57588L28.4466 6.03917C28.2502 6.09662 28.0966 6.25021 28.0392 6.44664L27.5759 8.03083C27.4076 8.60628 26.5924 8.60628 26.4241 8.03083L25.9608 6.44664C25.9034 6.25021 25.7498 6.09662 25.5534 6.03917L23.9692 5.57588C23.3937 5.40759 23.3937 4.59241 23.9692 4.42412L25.5534 3.96083C25.7498 3.90338 25.9034 3.74979 25.9608 3.55336L26.4241 1.96917Z" fill="url(#paint7_radial_210_2087)"/>
<path d="M26.4241 1.96917C26.5924 1.39372 27.4076 1.39372 27.5759 1.96917L28.0392 3.55336C28.0966 3.74979 28.2502 3.90338 28.4466 3.96083L30.0308 4.42412C30.6063 4.59241 30.6063 5.40759 30.0308 5.57588L28.4466 6.03917C28.2502 6.09662 28.0966 6.25021 28.0392 6.44664L27.5759 8.03083C27.4076 8.60628 26.5924 8.60628 26.4241 8.03083L25.9608 6.44664C25.9034 6.25021 25.7498 6.09662 25.5534 6.03917L23.9692 5.57588C23.3937 5.40759 23.3937 4.59241 23.9692 4.42412L25.5534 3.96083C25.7498 3.90338 25.9034 3.74979 25.9608 3.55336L26.4241 1.96917Z" fill="url(#paint8_linear_210_2087)" fill-opacity="0.3"/>
<defs>
<linearGradient id="paint0_linear_210_2087" x1="12" y1="9.07692" x2="21.2308" y2="34" gradientUnits="userSpaceOnUse">
<stop stop-color="#9467F6"/>
<stop offset="1" stop-color="#F580FF"/>
</linearGradient>
<radialGradient id="paint1_radial_210_2087" cx="0" cy="0" r="1" gradientUnits="userSpaceOnUse" gradientTransform="translate(-40.0909 -5.4091) rotate(16.0838) scale(62.0185)">
<stop stop-color="#3DB9FF"/>
<stop offset="1" stop-color="#3DB9FF" stop-opacity="0"/>
</radialGradient>
<linearGradient id="paint2_linear_210_2087" x1="12" y1="4" x2="12" y2="28" gradientUnits="userSpaceOnUse">
<stop stop-color="white"/>
<stop offset="1" stop-color="white" stop-opacity="0"/>
</linearGradient>
<linearGradient id="paint3_linear_210_2087" x1="24" y1="26.5385" x2="28.6154" y2="39" gradientUnits="userSpaceOnUse">
<stop stop-color="#9467F6"/>
<stop offset="1" stop-color="#F580FF"/>
</linearGradient>
<radialGradient id="paint4_radial_210_2087" cx="0" cy="0" r="1" gradientUnits="userSpaceOnUse" gradientTransform="translate(-2.04546 19.2955) rotate(16.0838) scale(31.0092)">
<stop stop-color="#3DB9FF"/>
<stop offset="1" stop-color="#3DB9FF" stop-opacity="0"/>
</radialGradient>
<linearGradient id="paint5_linear_210_2087" x1="24" y1="24" x2="24" y2="36" gradientUnits="userSpaceOnUse">
<stop stop-color="white"/>
<stop offset="1" stop-color="white" stop-opacity="0"/>
</linearGradient>
<linearGradient id="paint6_linear_210_2087" x1="27" y1="2.11538" x2="30.8462" y2="12.5" gradientUnits="userSpaceOnUse">
<stop stop-color="#9467F6"/>
<stop offset="1" stop-color="#F580FF"/>
</linearGradient>
<radialGradient id="paint7_radial_210_2087" cx="0" cy="0" r="1" gradientUnits="userSpaceOnUse" gradientTransform="translate(5.29545 -3.92046) rotate(16.0838) scale(25.841)">
<stop stop-color="#3DB9FF"/>
<stop offset="1" stop-color="#3DB9FF" stop-opacity="0"/>
</radialGradient>
<linearGradient id="paint8_linear_210_2087" x1="27" y1="0" x2="27" y2="10" gradientUnits="userSpaceOnUse">
<stop stop-color="white"/>
<stop offset="1" stop-color="white" stop-opacity="0"/>
</linearGradient>
</defs>
</svg>
