<svg width="22" height="21" viewBox="0 0 22 21" fill="none" xmlns="http://www.w3.org/2000/svg">
<g clip-path="url(#clip0_2_4110)">
<path d="M11.4562 16.982C11.4562 16.7476 11.3716 16.5458 11.2023 16.3766C11.033 16.2073 10.8312 16.1227 10.5968 16.1227C10.3689 16.1227 10.1704 16.2073 10.0011 16.3766C9.83183 16.5458 9.74719 16.7476 9.74719 16.982V19.9898C9.74719 20.2242 9.83183 20.4244 10.0011 20.5904C10.1704 20.7564 10.3689 20.8394 10.5968 20.8394C10.8312 20.8394 11.033 20.7564 11.2023 20.5904C11.3716 20.4244 11.4562 20.2242 11.4562 19.9898V16.982ZM3.26282 16.5523C3.10006 16.7151 3.01868 16.9153 3.01868 17.1529C3.01868 17.3905 3.0968 17.5907 3.25305 17.7535C3.41581 17.9163 3.61763 17.9993 3.85852 18.0025C4.09941 18.0057 4.30123 17.926 4.46399 17.7633L6.59289 15.6344C6.75565 15.4781 6.83703 15.2811 6.83703 15.0435C6.83703 14.8059 6.75565 14.6057 6.59289 14.443C6.43664 14.2802 6.23808 14.1988 5.99719 14.1988C5.7563 14.1988 5.55448 14.2802 5.39172 14.443L3.26282 16.5523ZM1.04602 9.57965C0.818155 9.57965 0.619588 9.66429 0.450317 9.83356C0.281046 10.0028 0.196411 10.2014 0.196411 10.4293C0.196411 10.6637 0.281046 10.8639 0.450317 11.0299C0.619588 11.1959 0.818155 11.2789 1.04602 11.2789H4.07336C4.30123 11.2789 4.4998 11.1959 4.66907 11.0299C4.83834 10.8639 4.92297 10.6637 4.92297 10.4293C4.92297 10.2014 4.83834 10.0028 4.66907 9.83356C4.4998 9.66429 4.30123 9.57965 4.07336 9.57965H1.04602ZM5.39172 6.43512C5.55448 6.59788 5.75468 6.67926 5.99231 6.67926C6.22994 6.67926 6.43013 6.59788 6.59289 6.43512C6.75565 6.27236 6.83703 6.07216 6.83703 5.83453C6.83703 5.5969 6.75565 5.39671 6.59289 5.23395L4.47375 3.10504C4.31099 2.94228 4.11242 2.85927 3.87805 2.85602C3.64368 2.85277 3.44185 2.93252 3.27258 3.09528C3.10982 3.25804 3.02844 3.45823 3.02844 3.69586C3.02844 3.93349 3.10982 4.13369 3.27258 4.29645L5.39172 6.43512ZM11.4562 0.878479C11.4562 0.644104 11.3716 0.443909 11.2023 0.277893C11.033 0.111877 10.8312 0.0288696 10.5968 0.0288696C10.3689 0.0288696 10.1704 0.111877 10.0011 0.277893C9.83183 0.443909 9.74719 0.644104 9.74719 0.878479V3.88629C9.74719 4.12066 9.83183 4.32249 10.0011 4.49176C10.1704 4.66103 10.3689 4.74567 10.5968 4.74567C10.8312 4.74567 11.033 4.66103 11.2023 4.49176C11.3716 4.32249 11.4562 4.12066 11.4562 3.88629V0.878479ZM14.6007 5.23395C14.438 5.39671 14.3566 5.5969 14.3566 5.83453C14.3566 6.07216 14.438 6.27236 14.6007 6.43512C14.7634 6.59788 14.9636 6.67926 15.2013 6.67926C15.4389 6.67926 15.6423 6.59788 15.8116 6.43512L17.9308 4.30621C18.0935 4.14345 18.1749 3.94163 18.1749 3.70075C18.1749 3.45986 18.0935 3.25804 17.9308 3.09528C17.768 2.93252 17.5694 2.85114 17.3351 2.85114C17.1007 2.85114 16.9021 2.93252 16.7394 3.09528L14.6007 5.23395ZM20.1476 11.2789C20.3819 11.2789 20.5837 11.1959 20.753 11.0299C20.9223 10.8639 21.0069 10.6637 21.0069 10.4293C21.0069 10.2014 20.9223 10.0028 20.753 9.83356C20.5837 9.66429 20.3819 9.57965 20.1476 9.57965H17.1398C16.9119 9.57965 16.7134 9.66429 16.5441 9.83356C16.3748 10.0028 16.2902 10.2014 16.2902 10.4293C16.2902 10.6637 16.3748 10.8639 16.5441 11.0299C16.7134 11.1959 16.9119 11.2789 17.1398 11.2789H20.1476ZM18.4874 19.9215C18.6957 20.1298 18.9513 20.234 19.254 20.234C19.5567 20.234 19.8058 20.1298 20.0011 19.9215C20.2029 19.7066 20.3022 19.4543 20.2989 19.1646C20.2957 18.8749 20.1964 18.6259 20.0011 18.4176L10.714 9.10114C10.5121 8.89281 10.2599 8.78864 9.95715 8.78864C9.65442 8.78864 9.40539 8.89281 9.21008 9.10114C9.00826 9.31598 8.90735 9.56988 8.90735 9.86285C8.90735 10.1558 9.00826 10.4064 9.21008 10.6148L18.4874 19.9215ZM12.8136 13.2125L9.95227 10.3414C9.86112 10.2567 9.80742 10.1672 9.79114 10.0728C9.77486 9.9784 9.80904 9.88889 9.89368 9.80426C9.96529 9.72613 10.0499 9.69521 10.1476 9.71149C10.2453 9.72776 10.3397 9.78147 10.4308 9.87262L13.3019 12.7437L12.8136 13.2125Z" fill="black"/>
</g>
<defs>
<clipPath id="clip0_2_4110">
<rect width="20.8105" height="20.8887" fill="white" transform="translate(0.196411 0.0288696)"/>
</clipPath>
</defs>
</svg>
