<svg width="10" height="10" viewBox="0 0 10 10" fill="none" xmlns="http://www.w3.org/2000/svg">
<path d="M4.5201 0.640975C4.66034 0.161435 5.33966 0.161436 5.4799 0.640975L6.28081 3.37963C6.32868 3.54332 6.45668 3.67132 6.62037 3.71919L9.35903 4.5201C9.83856 4.66034 9.83856 5.33966 9.35903 5.4799L6.62037 6.28081C6.45668 6.32868 6.32868 6.45668 6.28081 6.62037L5.4799 9.35903C5.33966 9.83856 4.66034 9.83856 4.5201 9.35903L3.71919 6.62037C3.67132 6.45668 3.54332 6.32868 3.37963 6.28081L0.640975 5.4799C0.161435 5.33966 0.161436 4.66034 0.640975 4.5201L3.37963 3.71919C3.54332 3.67132 3.67132 3.54332 3.71919 3.37963L4.5201 0.640975Z" fill="url(#paint0_linear_88_962)"/>
<path d="M4.5201 0.640975C4.66034 0.161435 5.33966 0.161436 5.4799 0.640975L6.28081 3.37963C6.32868 3.54332 6.45668 3.67132 6.62037 3.71919L9.35903 4.5201C9.83856 4.66034 9.83856 5.33966 9.35903 5.4799L6.62037 6.28081C6.45668 6.32868 6.32868 6.45668 6.28081 6.62037L5.4799 9.35903C5.33966 9.83856 4.66034 9.83856 4.5201 9.35903L3.71919 6.62037C3.67132 6.45668 3.54332 6.32868 3.37963 6.28081L0.640975 5.4799C0.161435 5.33966 0.161436 4.66034 0.640975 4.5201L3.37963 3.71919C3.54332 3.67132 3.67132 3.54332 3.71919 3.37963L4.5201 0.640975Z" fill="white" fill-opacity="0.2"/>
<defs>
<linearGradient id="paint0_linear_88_962" x1="5" y1="-1" x2="5" y2="11" gradientUnits="userSpaceOnUse">
<stop stop-color="#7E3DFF"/>
<stop offset="1" stop-color="#DF3DFF"/>
</linearGradient>
</defs>
</svg>
