<svg width="16" height="16" viewBox="0 0 16 16" fill="none" xmlns="http://www.w3.org/2000/svg">
<path d="M15.9962 0.28102C16.0219 0.131734 15.9145 -0.00179362 15.7794 1.8228e-05C6.62062 0.122836 0.97445 6.81899 0.00157053 15.7038C-0.0315799 16.0066 0.469862 16.1192 0.580164 15.8406C1.48296 13.56 3.34682 10.4075 6.82053 10.0601C10.386 9.7036 12.3859 8.12724 12.7288 6.46928C12.7642 6.29808 12.6179 6.16417 12.468 6.21347C11.9853 6.37218 11.6935 6.45183 11.0085 6.40151C10.9555 6.39762 10.9477 6.2905 10.9984 6.27283C12.6314 5.7034 15.5228 3.02714 15.9962 0.28102Z" fill="url(#paint0_linear_88_968)"/>
<path d="M15.9962 0.28102C16.0219 0.131734 15.9145 -0.00179362 15.7794 1.8228e-05C6.62062 0.122836 0.97445 6.81899 0.00157053 15.7038C-0.0315799 16.0066 0.469862 16.1192 0.580164 15.8406C1.48296 13.56 3.34682 10.4075 6.82053 10.0601C10.386 9.7036 12.3859 8.12724 12.7288 6.46928C12.7642 6.29808 12.6179 6.16417 12.468 6.21347C11.9853 6.37218 11.6935 6.45183 11.0085 6.40151C10.9555 6.39762 10.9477 6.2905 10.9984 6.27283C12.6314 5.7034 15.5228 3.02714 15.9962 0.28102Z" fill="white" fill-opacity="0.2"/>
<defs>
<linearGradient id="paint0_linear_88_968" x1="8" y1="0" x2="8" y2="16" gradientUnits="userSpaceOnUse">
<stop stop-color="#7E3DFF"/>
<stop offset="1" stop-color="#DF3DFF"/>
</linearGradient>
</defs>
</svg>
