<svg width="16" height="16" viewBox="0 0 16 16" fill="none" xmlns="http://www.w3.org/2000/svg">
<mask id="mask0_88_977" style="mask-type:alpha" maskUnits="userSpaceOnUse" x="0" y="0" width="16" height="16">
<path fill-rule="evenodd" clip-rule="evenodd" d="M9.35309 1.89823C8.03228 1.60534 6.65209 1.74893 5.41986 2.30744C4.18763 2.86595 3.16989 3.80921 2.51953 4.99554C1.86917 6.18186 1.62131 7.54718 1.81319 8.8864C2.00506 10.2256 2.6263 11.4664 3.58359 12.4224C4.54088 13.3784 5.78253 13.998 7.12201 14.188C8.46149 14.3781 9.82647 14.1284 11.0119 13.4764C12.1974 12.8244 13.1392 11.8054 13.6961 10.5724C14.2529 9.33944 14.3946 7.95906 14.0999 6.63865C14.0097 6.23438 14.2643 5.83352 14.6686 5.7433C15.0728 5.65307 15.4737 5.90766 15.5639 6.31192C15.9293 7.94924 15.7536 9.66091 15.0631 11.1898C14.3726 12.7187 13.2047 13.9823 11.7348 14.7907C10.2648 15.5992 8.57224 15.9088 6.91129 15.6732C5.25033 15.4375 3.71069 14.6692 2.52365 13.4838C1.33661 12.2984 0.566269 10.7598 0.328347 9.09914C0.0904255 7.4385 0.397771 5.7455 1.20421 4.27446C2.01066 2.80342 3.27265 1.63377 4.80062 0.941223C6.32859 0.248673 8.04002 0.0706166 9.67783 0.433803C10.0822 0.523477 10.3373 0.923995 10.2477 1.32839C10.158 1.73278 9.75748 1.9879 9.35309 1.89823Z" fill="url(#paint0_linear_88_977)"/>
<path fill-rule="evenodd" clip-rule="evenodd" d="M9.35309 1.89823C8.03228 1.60534 6.65209 1.74893 5.41986 2.30744C4.18763 2.86595 3.16989 3.80921 2.51953 4.99554C1.86917 6.18186 1.62131 7.54718 1.81319 8.8864C2.00506 10.2256 2.6263 11.4664 3.58359 12.4224C4.54088 13.3784 5.78253 13.998 7.12201 14.188C8.46149 14.3781 9.82647 14.1284 11.0119 13.4764C12.1974 12.8244 13.1392 11.8054 13.6961 10.5724C14.2529 9.33944 14.3946 7.95906 14.0999 6.63865C14.0097 6.23438 14.2643 5.83352 14.6686 5.7433C15.0728 5.65307 15.4737 5.90766 15.5639 6.31192C15.9293 7.94924 15.7536 9.66091 15.0631 11.1898C14.3726 12.7187 13.2047 13.9823 11.7348 14.7907C10.2648 15.5992 8.57224 15.9088 6.91129 15.6732C5.25033 15.4375 3.71069 14.6692 2.52365 13.4838C1.33661 12.2984 0.566269 10.7598 0.328347 9.09914C0.0904255 7.4385 0.397771 5.7455 1.20421 4.27446C2.01066 2.80342 3.27265 1.63377 4.80062 0.941223C6.32859 0.248673 8.04002 0.0706166 9.67783 0.433803C10.0822 0.523477 10.3373 0.923995 10.2477 1.32839C10.158 1.73278 9.75748 1.9879 9.35309 1.89823Z" fill="white" fill-opacity="0.2"/>
</mask>
<g mask="url(#mask0_88_977)">
<path fill-rule="evenodd" clip-rule="evenodd" d="M9.35309 1.89823C8.03228 1.60534 6.65209 1.74893 5.41986 2.30744C4.18763 2.86595 3.16989 3.80921 2.51953 4.99554C1.86917 6.18186 1.62131 7.54718 1.81319 8.8864C2.00506 10.2256 2.6263 11.4664 3.58359 12.4224C4.54088 13.3784 5.78253 13.998 7.12201 14.188C8.46149 14.3781 9.82647 14.1284 11.0119 13.4764C12.1974 12.8244 13.1392 11.8054 13.6961 10.5724C14.2529 9.33944 14.3946 7.95906 14.0999 6.63865C14.0097 6.23438 14.2643 5.83352 14.6686 5.7433C15.0728 5.65307 15.4737 5.90766 15.5639 6.31192C15.9293 7.94924 15.7536 9.66091 15.0631 11.1898C14.3726 12.7187 13.2047 13.9823 11.7348 14.7907C10.2648 15.5992 8.57224 15.9088 6.91129 15.6732C5.25033 15.4375 3.71069 14.6692 2.52365 13.4838C1.33661 12.2984 0.566269 10.7598 0.328347 9.09914C0.0904255 7.4385 0.397771 5.7455 1.20421 4.27446C2.01066 2.80342 3.27265 1.63377 4.80062 0.941223C6.32859 0.248673 8.04002 0.0706166 9.67783 0.433803C10.0822 0.523477 10.3373 0.923995 10.2477 1.32839C10.158 1.73278 9.75748 1.9879 9.35309 1.89823Z" fill="url(#paint1_linear_88_977)"/>
<path fill-rule="evenodd" clip-rule="evenodd" d="M9.35309 1.89823C8.03228 1.60534 6.65209 1.74893 5.41986 2.30744C4.18763 2.86595 3.16989 3.80921 2.51953 4.99554C1.86917 6.18186 1.62131 7.54718 1.81319 8.8864C2.00506 10.2256 2.6263 11.4664 3.58359 12.4224C4.54088 13.3784 5.78253 13.998 7.12201 14.188C8.46149 14.3781 9.82647 14.1284 11.0119 13.4764C12.1974 12.8244 13.1392 11.8054 13.6961 10.5724C14.2529 9.33944 14.3946 7.95906 14.0999 6.63865C14.0097 6.23438 14.2643 5.83352 14.6686 5.7433C15.0728 5.65307 15.4737 5.90766 15.5639 6.31192C15.9293 7.94924 15.7536 9.66091 15.0631 11.1898C14.3726 12.7187 13.2047 13.9823 11.7348 14.7907C10.2648 15.5992 8.57224 15.9088 6.91129 15.6732C5.25033 15.4375 3.71069 14.6692 2.52365 13.4838C1.33661 12.2984 0.566269 10.7598 0.328347 9.09914C0.0904255 7.4385 0.397771 5.7455 1.20421 4.27446C2.01066 2.80342 3.27265 1.63377 4.80062 0.941223C6.32859 0.248673 8.04002 0.0706166 9.67783 0.433803C10.0822 0.523477 10.3373 0.923995 10.2477 1.32839C10.158 1.73278 9.75748 1.9879 9.35309 1.89823Z" fill="white" fill-opacity="0.2"/>
</g>
<defs>
<linearGradient id="paint0_linear_88_977" x1="8.00001" y1="0.25" x2="8.00001" y2="15.75" gradientUnits="userSpaceOnUse">
<stop stop-color="#7E3DFF"/>
<stop offset="1" stop-color="#DF3DFF"/>
</linearGradient>
<linearGradient id="paint1_linear_88_977" x1="8.00001" y1="0.25" x2="8.00001" y2="15.75" gradientUnits="userSpaceOnUse">
<stop stop-color="#7E3DFF"/>
<stop offset="1" stop-color="#DF3DFF"/>
</linearGradient>
</defs>
</svg>
