<svg width="4" height="4" viewBox="0 0 4 4" fill="none" xmlns="http://www.w3.org/2000/svg">
<path d="M1.71206 0.984586C1.7962 0.696862 2.2038 0.696862 2.28794 0.984585L2.40645 1.38982C2.43517 1.48803 2.51197 1.56483 2.61018 1.59355L3.01541 1.71206C3.30314 1.7962 3.30314 2.2038 3.01541 2.28794L2.61018 2.40645C2.51197 2.43517 2.43517 2.51197 2.40645 2.61018L2.28794 3.01541C2.2038 3.30314 1.7962 3.30314 1.71206 3.01541L1.59355 2.61018C1.56483 2.51197 1.48803 2.43517 1.38982 2.40645L0.984586 2.28794C0.696862 2.2038 0.696862 1.7962 0.984585 1.71206L1.38982 1.59355C1.48803 1.56483 1.56483 1.48803 1.59355 1.38982L1.71206 0.984586Z" fill="url(#paint0_linear_88_964)"/>
<path d="M1.71206 0.984586C1.7962 0.696862 2.2038 0.696862 2.28794 0.984585L2.40645 1.38982C2.43517 1.48803 2.51197 1.56483 2.61018 1.59355L3.01541 1.71206C3.30314 1.7962 3.30314 2.2038 3.01541 2.28794L2.61018 2.40645C2.51197 2.43517 2.43517 2.51197 2.40645 2.61018L2.28794 3.01541C2.2038 3.30314 1.7962 3.30314 1.71206 3.01541L1.59355 2.61018C1.56483 2.51197 1.48803 2.43517 1.38982 2.40645L0.984586 2.28794C0.696862 2.2038 0.696862 1.7962 0.984585 1.71206L1.38982 1.59355C1.48803 1.56483 1.56483 1.48803 1.59355 1.38982L1.71206 0.984586Z" fill="white" fill-opacity="0.2"/>
<defs>
<linearGradient id="paint0_linear_88_964" x1="2" y1="0" x2="2" y2="4" gradientUnits="userSpaceOnUse">
<stop stop-color="#7E3DFF"/>
<stop offset="1" stop-color="#DF3DFF"/>
</linearGradient>
</defs>
</svg>
