<svg width="23" height="22" viewBox="0 0 23 22" fill="none" xmlns="http://www.w3.org/2000/svg">
<g clip-path="url(#clip0_2_15321)">
<path d="M7.64557 21.0625C8.59609 21.0625 9.48639 20.8835 10.3165 20.5254C11.1465 20.1673 11.8773 19.6742 12.5089 19.0459C13.1403 18.4176 13.6335 17.6868 13.9884 16.8535C14.3432 16.0202 14.5206 15.1282 14.5206 14.1777C14.5206 13.2337 14.3415 12.3467 13.9835 11.5166C13.6254 10.6865 13.1322 9.95734 12.504 9.32909C11.8757 8.70083 11.1465 8.20767 10.3165 7.8496C9.48639 7.49152 8.59609 7.31249 7.64557 7.31249C6.70156 7.31249 5.81288 7.49152 4.97955 7.8496C4.14622 8.20767 3.41542 8.70083 2.78717 9.32909C2.15892 9.95734 1.66575 10.6865 1.30768 11.5166C0.949605 12.3467 0.770569 13.2337 0.770569 14.1777C0.770569 15.1282 0.949605 16.0202 1.30768 16.8535C1.66575 17.6868 2.15892 18.4176 2.78717 19.0459C3.41542 19.6742 4.14622 20.1673 4.97955 20.5254C5.81288 20.8835 6.70156 21.0625 7.64557 21.0625ZM7.64557 19.5C6.9164 19.5 6.22955 19.3616 5.58502 19.0849C4.94049 18.8082 4.37409 18.4274 3.8858 17.9424C3.39752 17.4573 3.01666 16.8925 2.74323 16.248C2.46979 15.6035 2.33307 14.9134 2.33307 14.1777C2.33307 13.4486 2.46979 12.7633 2.74323 12.122C3.01666 11.4807 3.39752 10.9176 3.8858 10.4326C4.37409 9.94758 4.94049 9.56672 5.58502 9.29003C6.22955 9.01333 6.9164 8.87499 7.64557 8.87499C8.38125 8.87499 9.06973 9.01333 9.711 9.29003C10.3523 9.56672 10.9154 9.94758 11.4005 10.4326C11.8855 10.9176 12.2663 11.4807 12.5431 12.122C12.8197 12.7633 12.9581 13.4486 12.9581 14.1777C12.9581 14.9134 12.8197 15.6035 12.5431 16.248C12.2663 16.8925 11.8855 17.4573 11.4005 17.9424C10.9154 18.4274 10.3523 18.8082 9.711 19.0849C9.06973 19.3616 8.38125 19.5 7.64557 19.5ZM11.5421 14.3535C12.4861 14.3535 13.3731 14.1761 14.2032 13.8213C15.0332 13.4664 15.764 12.9733 16.3956 12.3418C17.0271 11.7103 17.5203 10.9795 17.8751 10.1494C18.2299 9.31932 18.4073 8.42902 18.4073 7.4785C18.4073 6.52798 18.2299 5.63931 17.8751 4.81249C17.5203 3.98566 17.0271 3.25649 16.3956 2.62499C15.764 1.99347 15.0332 1.49868 14.2032 1.14061C13.3731 0.782537 12.4861 0.6035 11.5421 0.6035C10.5915 0.6035 9.70123 0.782537 8.87116 1.14061C8.04108 1.49868 7.31028 1.99347 6.67877 2.62499C6.04726 3.25649 5.55247 3.98566 5.1944 4.81249C4.83633 5.63931 4.65729 6.52798 4.65729 7.4785C4.65729 8.42902 4.83633 9.31932 5.1944 10.1494C5.55247 10.9795 6.04726 11.7103 6.67877 12.3418C7.31028 12.9733 8.04108 13.4664 8.87116 13.8213C9.70123 14.1761 10.5915 14.3535 11.5421 14.3535ZM11.5421 12.791C10.8064 12.791 10.1163 12.6543 9.47174 12.3808C8.82721 12.1074 8.26244 11.7266 7.77741 11.2383C7.29238 10.75 6.91152 10.1852 6.63483 9.54393C6.35814 8.90265 6.21979 8.21418 6.21979 7.4785C6.21979 6.74282 6.35814 6.05598 6.63483 5.41796C6.91152 4.77994 7.29238 4.21678 7.77741 3.7285C8.26244 3.24022 8.82721 2.85773 9.47174 2.58104C10.1163 2.30434 10.8064 2.166 11.5421 2.166C12.2712 2.166 12.9564 2.30434 13.5977 2.58104C14.239 2.85773 14.8038 3.23859 15.2921 3.72362C15.7803 4.20864 16.1612 4.77179 16.4347 5.41307C16.7081 6.05435 16.8448 6.74282 16.8448 7.4785C16.8448 8.21418 16.7081 8.90265 16.4347 9.54393C16.1612 10.1852 15.7803 10.75 15.2921 11.2383C14.8038 11.7266 14.239 12.1074 13.5977 12.3808C12.9564 12.6543 12.2712 12.791 11.5421 12.791ZM15.4386 21.0625C16.3826 21.0625 17.2696 20.8835 18.0997 20.5254C18.9297 20.1673 19.6605 19.6742 20.2921 19.0459C20.9236 18.4176 21.4168 17.6868 21.7716 16.8535C22.1264 16.0202 22.3038 15.1282 22.3038 14.1777C22.3038 13.2337 22.1264 12.3467 21.7716 11.5166C21.4168 10.6865 20.9236 9.95734 20.2921 9.32909C19.6605 8.70083 18.9297 8.20767 18.0997 7.8496C17.2696 7.49152 16.3826 7.31249 15.4386 7.31249C14.488 7.31249 13.5961 7.49152 12.7628 7.8496C11.9294 8.20767 11.1986 8.70083 10.5704 9.32909C9.94212 9.95734 9.44895 10.6865 9.09088 11.5166C8.73281 12.3467 8.55377 13.2337 8.55377 14.1777C8.55377 15.1282 8.73281 16.0202 9.09088 16.8535C9.44895 17.6868 9.94212 18.4176 10.5704 19.0459C11.1986 19.6742 11.9294 20.1673 12.7628 20.5254C13.5961 20.8835 14.488 21.0625 15.4386 21.0625ZM15.4386 19.5C14.7029 19.5 14.0128 19.3616 13.3683 19.0849C12.7237 18.8082 12.1589 18.4274 11.6739 17.9424C11.1889 17.4573 10.808 16.8925 10.5313 16.248C10.2546 15.6035 10.1163 14.9134 10.1163 14.1777C10.1163 13.4486 10.2546 12.7633 10.5313 12.122C10.808 11.4807 11.1889 10.9176 11.6739 10.4326C12.1589 9.94758 12.7237 9.56672 13.3683 9.29003C14.0128 9.01333 14.7029 8.87499 15.4386 8.87499C16.1677 8.87499 16.8529 9.01333 17.4942 9.29003C18.1354 9.56672 18.6986 9.94758 19.1837 10.4326C19.6687 10.9176 20.0495 11.4807 20.3263 12.122C20.6029 12.7633 20.7413 13.4486 20.7413 14.1777C20.7413 14.9134 20.6045 15.6035 20.3311 16.248C20.0577 16.8925 19.6785 17.4573 19.1935 17.9424C18.7084 18.4274 18.1436 18.8082 17.4991 19.0849C16.8545 19.3616 16.1677 19.5 15.4386 19.5Z" fill="black"/>
</g>
<defs>
<clipPath id="clip0_2_15321">
<rect width="21.5332" height="20.5176" fill="white" transform="translate(0.770569 0.544907)"/>
</clipPath>
</defs>
</svg>
