<svg width="6" height="6" viewBox="0 0 6 6" fill="none" xmlns="http://www.w3.org/2000/svg">
<path d="M2.71206 0.984585C2.7962 0.696861 3.2038 0.696861 3.28794 0.984585L3.63272 2.16354C3.66144 2.26176 3.73824 2.33856 3.83646 2.36728L5.01541 2.71206C5.30314 2.7962 5.30314 3.2038 5.01541 3.28794L3.83646 3.63272C3.73824 3.66144 3.66144 3.73824 3.63272 3.83646L3.28794 5.01541C3.2038 5.30314 2.7962 5.30314 2.71206 5.01541L2.36728 3.83646C2.33856 3.73824 2.26176 3.66144 2.16354 3.63272L0.984585 3.28794C0.696861 3.2038 0.696861 2.7962 0.984585 2.71206L2.16354 2.36728C2.26176 2.33856 2.33856 2.26176 2.36728 2.16354L2.71206 0.984585Z" fill="url(#paint0_linear_88_980)"/>
<path d="M2.71206 0.984585C2.7962 0.696861 3.2038 0.696861 3.28794 0.984585L3.63272 2.16354C3.66144 2.26176 3.73824 2.33856 3.83646 2.36728L5.01541 2.71206C5.30314 2.7962 5.30314 3.2038 5.01541 3.28794L3.83646 3.63272C3.73824 3.66144 3.66144 3.73824 3.63272 3.83646L3.28794 5.01541C3.2038 5.30314 2.7962 5.30314 2.71206 5.01541L2.36728 3.83646C2.33856 3.73824 2.26176 3.66144 2.16354 3.63272L0.984585 3.28794C0.696861 3.2038 0.696861 2.7962 0.984585 2.71206L2.16354 2.36728C2.26176 2.33856 2.33856 2.26176 2.36728 2.16354L2.71206 0.984585Z" fill="white" fill-opacity="0.2"/>
<defs>
<linearGradient id="paint0_linear_88_980" x1="3" y1="0" x2="3" y2="6" gradientUnits="userSpaceOnUse">
<stop stop-color="#7E3DFF"/>
<stop offset="1" stop-color="#DF3DFF"/>
</linearGradient>
</defs>
</svg>
