<svg width="5" height="5" viewBox="0 0 5 5" fill="none" xmlns="http://www.w3.org/2000/svg">
<path d="M2.21206 0.984585C2.2962 0.696862 2.7038 0.696862 2.78794 0.984586L3.01959 1.77668C3.04831 1.87489 3.12511 1.95169 3.22332 1.98041L4.01541 2.21206C4.30314 2.2962 4.30314 2.7038 4.01541 2.78794L3.22332 3.01959C3.12511 3.04831 3.04831 3.12511 3.01959 3.22332L2.78794 4.01541C2.7038 4.30314 2.2962 4.30314 2.21206 4.01541L1.98041 3.22332C1.95169 3.12511 1.87489 3.04831 1.77668 3.01959L0.984585 2.78794C0.696862 2.7038 0.696862 2.2962 0.984586 2.21206L1.77668 1.98041C1.87489 1.95169 1.95169 1.87489 1.98041 1.77668L2.21206 0.984585Z" fill="url(#paint0_linear_88_976)"/>
<path d="M2.21206 0.984585C2.2962 0.696862 2.7038 0.696862 2.78794 0.984586L3.01959 1.77668C3.04831 1.87489 3.12511 1.95169 3.22332 1.98041L4.01541 2.21206C4.30314 2.2962 4.30314 2.7038 4.01541 2.78794L3.22332 3.01959C3.12511 3.04831 3.04831 3.12511 3.01959 3.22332L2.78794 4.01541C2.7038 4.30314 2.2962 4.30314 2.21206 4.01541L1.98041 3.22332C1.95169 3.12511 1.87489 3.04831 1.77668 3.01959L0.984585 2.78794C0.696862 2.7038 0.696862 2.2962 0.984586 2.21206L1.77668 1.98041C1.87489 1.95169 1.95169 1.87489 1.98041 1.77668L2.21206 0.984585Z" fill="white" fill-opacity="0.2"/>
<defs>
<linearGradient id="paint0_linear_88_976" x1="2.5" y1="0" x2="2.5" y2="5" gradientUnits="userSpaceOnUse">
<stop stop-color="#7E3DFF"/>
<stop offset="1" stop-color="#DF3DFF"/>
</linearGradient>
</defs>
</svg>
