<?xml version="1.0" encoding="utf-8"?>
<!-- Generator: Adobe Illustrator 23.0.2, SVG Export Plug-In . SVG Version: 6.00 Build 0)  -->
<svg version="1.1" id="Layer_1" xmlns="http://www.w3.org/2000/svg" xmlns:xlink="http://www.w3.org/1999/xlink" x="0px" y="0px"
	 viewBox="0 0 1000 1000" style="enable-background:new 0 0 1000 1000;" xml:space="preserve">
<style type="text/css">
	.st0{fill:#7084A9;}
</style>
<path class="st0" d="M720.15,538.94c-0.17-1.31-1.85-14.72-2.37-25.97V326.66c0-10.13-10.7-22.46-19.22-25.55
	c-15.9-5.43-34.15-2.13-47.28,10.13l-103.94,97.04l-97.84,91.34V326.66c0-10.13-10.7-22.46-19.22-25.55
	c-15.89-5.43-34.15-2.13-47.28,10.13l-103.93,97.04l-97.85,91.34v203.54l97.85-91.35l113.87-106.32c0.89-1.17,1.85-2.26,2.91-3.27
	c1.4-1.4,2.95-2.65,4.6-3.75c5.01-3.35,11.02-5.29,17.49-5.29c17.44,0,31.56,14.13,31.56,31.56v178.42l97.84-91.35l113.88-106.32
	c0.88-1.17,1.84-2.26,2.9-3.27c1.41-1.4,2.95-2.65,4.61-3.75c5-3.35,11.02-5.29,17.49-5.29c10.14,0,19.14,4.79,24.91,12.22
	c0.61,0.87,1.46,2.34,2.25,4.5c0.86,2.45,1.86,6.42,2.11,12.08c0.02,0.6,0.03,1.21,0.03,1.84c0.01-0.04,0.01-0.08,0.02-0.11
	c0.05,3.23-0.14,6.97-0.71,11.22c-10.86,45-51.3,78.44-99.64,78.44c52.33,0,95.49,39.17,101.79,89.79
	c6.29-50.62,49.46-89.79,101.79-89.79C771.89,613.37,732.37,581.91,720.15,538.94z"/>
</svg>
