<svg width="38" height="47" viewBox="0 0 38 47" fill="none" xmlns="http://www.w3.org/2000/svg">
<path d="M31.6703 24.8875C31.6173 18.9752 36.4913 16.0988 36.7142 15.9649C33.9538 11.9237 29.6754 11.3715 28.1719 11.3275C24.5785 10.9478 21.0929 13.4866 19.2624 13.4866C17.3953 13.4866 14.5765 11.3642 11.5385 11.4266C7.62906 11.4871 3.97172 13.7599 1.96585 17.2893C-2.17376 24.4857 0.913595 35.0611 4.87966 40.878C6.86361 43.7287 9.18187 46.9077 12.2162 46.7958C15.1849 46.6748 16.2938 44.8972 19.8762 44.8972C23.4257 44.8972 24.467 46.7958 27.5617 46.7243C30.7477 46.6748 32.7536 43.8626 34.6681 40.9881C36.9608 37.7247 37.8815 34.5071 37.9181 34.342C37.845 34.3163 31.7324 31.972 31.6703 24.8875ZM25.8244 7.50091C27.421 5.4959 28.5135 2.76813 28.2102 0C25.8993 0.102727 23.0092 1.60511 21.345 3.5661C19.8725 5.29411 18.5572 8.12644 18.897 10.79C21.4929 10.9845 24.1583 9.47474 25.8244 7.50091Z" fill="white"/>
</svg>
