<svg width="59" height="59" viewBox="0 0 59 59" fill="none" xmlns="http://www.w3.org/2000/svg">
<path d="M35.2619 47.2127L35.264 47.2231L35.2682 47.2562L35.2702 47.2893L35.6574 51.4715L38.4544 49.8545C39.0859 49.488 39.8954 49.7034 40.2597 50.3369L42.5682 54.3348L45.9678 52.3721L43.6614 48.3763C43.299 47.7386 43.5164 46.9332 44.1479 46.5709L46.947 44.956L43.4481 42.4799C43.3818 42.4405 43.3176 42.395 43.2555 42.3432L34.2225 35.9518L34.3488 37.3162C34.3612 37.3866 34.3675 37.4611 34.3695 37.5356L35.119 45.6369C35.1252 45.6762 35.1273 45.7135 35.1294 45.7528L35.2639 47.2145L35.2619 47.2127ZM13.753 38.687C15.343 38.128 16.9559 37.6559 18.5873 37.275C17.9227 34.7677 17.5107 31.9769 17.4134 29.0285H10.2853C10.5337 32.6164 11.782 35.9272 13.753 38.687ZM21.1816 36.747C21.7303 36.6518 22.281 36.5648 22.8317 36.4903C24.4901 36.2625 26.1588 36.1238 27.8255 36.0762V29.0308H20.0655C20.1608 31.8092 20.5543 34.4218 21.1816 36.747ZM30.4754 36.0742C30.846 36.0845 31.2145 36.099 31.5851 36.1176L31.3284 33.3371C31.2642 32.6125 31.7984 31.9686 32.5251 31.9045C32.8708 31.8734 33.1979 31.979 33.4526 32.1778L37.525 35.0597C37.7258 34.097 37.8915 33.0908 38.0115 32.0494C38.1254 31.0763 38.202 30.068 38.2372 29.0329H30.4773V36.0762L30.4754 36.0742ZM31.8315 38.7863C31.3802 38.7594 30.9268 38.7387 30.4754 38.7242V46.4073C30.6514 46.3514 30.8253 46.2831 30.9971 46.2044C31.4857 45.9808 31.9681 45.6702 32.4319 45.281L31.8315 38.7863ZM27.8253 38.7222C26.2726 38.7677 24.7219 38.8981 23.1836 39.1093C22.7902 39.1631 22.3969 39.2232 22.0055 39.2874C22.2933 40.0389 22.6101 40.749 22.9496 41.4074C24.2912 44.0099 25.9868 45.809 27.8253 46.4011V38.7202L27.8253 38.7222ZM19.378 39.805C18.0964 40.099 16.8253 40.451 15.5685 40.8629L15.7797 41.0762C17.6203 42.9167 19.8397 44.3805 22.3095 45.3391C21.6904 44.5358 21.117 43.6248 20.5993 42.6186C20.1521 41.7511 19.7424 40.8091 19.378 39.805ZM15.5685 14.5467C16.8253 14.9566 18.0964 15.3086 19.378 15.6026C19.7424 14.6006 20.1523 13.6585 20.5995 12.791C21.1171 11.7849 21.6906 10.8739 22.3097 10.0706C19.8397 11.0292 17.6203 12.4929 15.7799 14.3335L15.5685 14.5467ZM22.0071 16.1202C23.9346 16.439 25.8787 16.6275 27.8267 16.6875V9.00867C25.9861 9.6008 24.2925 11.3999 22.951 14.0024C22.6114 14.6608 22.2967 15.3688 22.009 16.1204L22.0071 16.1202ZM30.4767 16.6875C32.4229 16.6295 34.369 16.4411 36.2963 16.1223C36.0085 15.3707 35.6917 14.6606 35.3522 14.0002C34.0106 11.3977 32.317 9.59857 30.4765 9.00644L30.4767 16.6875ZM38.9241 15.6047C40.2056 15.3107 41.4768 14.9587 42.7335 14.5467L42.5224 14.3314C40.6818 12.4908 38.4624 11.0271 35.9926 10.0685C36.6117 10.8718 37.1851 11.7828 37.7027 12.789C38.1499 13.6564 38.5599 14.5985 38.9243 15.6026L38.9241 15.6047ZM44.547 16.7227C42.9569 17.2817 41.342 17.7516 39.7127 18.1347C40.3773 20.6419 40.7892 23.4327 40.8865 26.3811H48.0147C47.7662 22.7953 46.5178 19.4825 44.5468 16.7249L44.547 16.7227ZM37.1183 18.6626C34.9196 19.0456 32.7002 19.2692 30.4746 19.3334V26.3789H38.2345C38.1393 23.6004 37.7456 20.9878 37.1183 18.6626ZM27.8246 19.3334C25.601 19.2713 23.3816 19.0477 21.1808 18.6647C20.5535 20.9897 20.1602 23.6004 20.0649 26.379H27.8248L27.8246 19.3334ZM18.5864 18.1347C16.9571 17.7537 15.3442 17.2817 13.7542 16.7227C11.7832 19.4825 10.5348 22.7929 10.2863 26.379H17.4145C17.5097 23.4308 17.9239 20.6422 18.5864 18.1347ZM32.7727 48.9581C32.4249 49.0181 32.0771 49.0678 31.7293 49.1092C30.9177 49.2065 30.0958 49.2583 29.2717 49.2624H29.1496C23.1976 49.2624 17.8063 46.8484 13.9054 42.9457C10.0048 39.0452 7.59082 33.6541 7.59082 27.7015C7.59082 21.749 10.0049 16.3582 13.9054 12.4573C17.808 8.55467 23.197 6.14062 29.1496 6.14062C35.1022 6.14062 40.4929 8.55467 44.3938 12.4552C48.2964 16.3578 50.7105 21.7468 50.7105 27.6994C50.7105 28.4302 50.1163 29.0244 49.3855 29.0244H40.8846C40.8473 30.1507 40.7645 31.2604 40.6382 32.3432C40.4622 33.8587 40.1972 35.3204 39.8577 36.7055L43.8866 39.5564C44.0419 39.3638 44.193 39.1692 44.338 38.9725C44.7168 38.4653 45.0688 37.9353 45.3938 37.3928C45.7686 36.7675 46.5802 36.5626 47.2054 36.9373C47.8307 37.312 48.0356 38.1236 47.6609 38.7489C47.2903 39.3679 46.8887 39.9704 46.4601 40.546C46.3255 40.7281 46.1868 40.9083 46.046 41.0842L50.1433 43.9848C50.7375 44.4051 50.8803 45.2271 50.4601 45.8212C50.3462 45.9827 50.2013 46.1111 50.0398 46.2042L46.603 48.1876L48.9114 52.1855C49.2779 52.817 49.0626 53.6265 48.429 53.9909L42.742 57.2744C42.1106 57.6409 41.301 57.4256 40.9367 56.792L38.6262 52.7921L35.1852 54.7796C34.5538 55.1419 33.7463 54.9246 33.384 54.2931C33.2867 54.1213 33.2308 53.9391 33.2142 53.7548L32.7691 48.9537L32.7727 48.9581ZM47.5861 31.95C47.7496 31.2377 48.4577 30.7926 49.1699 30.9562C49.8821 31.1198 50.3272 31.8278 50.1637 32.54L49.9939 33.2233L49.8013 33.9086C49.5922 34.6084 48.8552 35.0079 48.1554 34.7988C47.4556 34.5898 47.056 33.8527 47.2651 33.1529L47.437 32.5504L47.584 31.95L47.5861 31.95Z" fill="white"/>
</svg>
